<svg width="88" height="88" viewBox="0 0 88 88" fill="none" xmlns="http://www.w3.org/2000/svg">
<g clip-path="url(#clip0_1_1569)">
<path d="M66.875 67H43.9583C43.3833 67 42.9166 66.5333 42.9166 65.9583V43.0417C42.9166 42.4667 43.3833 42 43.9583 42H66.875C67.45 42 67.9166 42.4667 67.9166 43.0417V65.9583C67.9166 66.5333 67.45 67 66.875 67ZM45 64.9167H65.8333V44.0833H45V64.9167Z" fill="#3A98B2"/>
<path d="M55.4167 44.0833H32.5C31.925 44.0833 31.4584 43.6166 31.4584 43.0416V20.1249C31.4584 19.5499 31.925 19.0833 32.5 19.0833H55.4167C55.9917 19.0833 56.4584 19.5499 56.4584 20.1249V43.0416C56.4584 43.6166 55.9917 44.0833 55.4167 44.0833ZM33.5417 41.9999H54.375V21.1666H33.5417V41.9999Z" fill="#3A98B2"/>
<path d="M47.0833 29.4999H40.8333C40.2583 29.4999 39.7916 29.0333 39.7916 28.4583V20.1249C39.7916 19.5499 40.2583 19.0833 40.8333 19.0833H47.0833C47.6583 19.0833 48.125 19.5499 48.125 20.1249V28.4583C48.125 29.0333 47.6583 29.4999 47.0833 29.4999ZM41.875 27.4166H46.0416V21.1666H41.875V27.4166Z" fill="#3A98B2"/>
<path d="M58.5417 52.4167H52.2917C51.7167 52.4167 51.25 51.95 51.25 51.375V43.0417C51.25 42.4667 51.7167 42 52.2917 42H58.5417C59.1167 42 59.5833 42.4667 59.5833 43.0417V51.375C59.5833 51.95 59.1167 52.4167 58.5417 52.4167ZM53.3333 50.3333H57.5V44.0833H53.3333V50.3333Z" fill="#3A98B2"/>
<path d="M43.9583 67H21.0417C20.4667 67 20 66.5333 20 65.9583V43.0417C20 42.4667 20.4667 42 21.0417 42H43.9583C44.5333 42 45 42.4667 45 43.0417V65.9583C45 66.5333 44.5333 67 43.9583 67ZM22.0833 64.9167H42.9167V44.0833H22.0833V64.9167Z" fill="#3A98B2"/>
<path d="M35.625 52.4167H29.375C28.8 52.4167 28.3334 51.95 28.3334 51.375V43.0417C28.3334 42.4667 28.8 42 29.375 42H35.625C36.2 42 36.6667 42.4667 36.6667 43.0417V51.375C36.6667 51.95 36.2 52.4167 35.625 52.4167ZM30.4167 50.3333H34.5834V44.0833H30.4167V50.3333Z" fill="#3A98B2"/>
</g>
<circle opacity="0.3" cx="44" cy="44" r="44" fill="#ABD2D9"/>
<defs>
<clipPath id="clip0_1_1569">
<rect width="50" height="52" fill="white" transform="translate(19 16)"/>
</clipPath>
</defs>
</svg>
