<svg width="88" height="88" viewBox="0 0 88 88" fill="none" xmlns="http://www.w3.org/2000/svg">
<g clip-path="url(#clip0_1_914)">
<path d="M68.5884 33.2822L44.4217 19.1155C44.1675 18.9672 43.855 18.9622 43.5976 19.1047L19.4309 32.4381C19.165 32.5839 19 32.8639 19 33.1672V68.1672C19 68.628 19.3733 69.0005 19.8333 69.0005H24C24.46 69.0005 24.8333 68.628 24.8333 68.1672V39.0006H63.1666V68.1673C63.1666 68.6281 63.5391 69.0006 63.9999 69.0006H68.1666C68.6274 69.0006 68.9999 68.6281 68.9999 68.1673V34.0006C69 33.7047 68.8434 33.4314 68.5884 33.2822ZM67.3333 67.3339H64.8333V38.1672C64.8333 37.7072 64.4608 37.3339 64 37.3339H24C23.54 37.3339 23.1667 37.7072 23.1667 38.1672V67.3339H20.6667V33.6589L43.9875 20.7922L67.3333 34.478V67.3339Z" fill="#3A98B2"/>
<path d="M60.6668 57.333H50.6668C50.2059 57.333 49.8335 57.7055 49.8335 58.1663V68.1663C49.8335 68.6271 50.2059 68.9996 50.6668 68.9996H60.6668C61.1276 68.9996 61.5001 68.6271 61.5001 68.1663V58.1663C61.5001 57.7055 61.1276 57.333 60.6668 57.333ZM59.8334 67.333H51.5001V58.9997H59.8334V67.333Z" fill="#3A98B2"/>
<path d="M56.5 58.1665V60.6665H54.8333V58.1665H53.1666V61.4998C53.1666 61.9606 53.539 62.3331 53.9999 62.3331H57.3332C57.794 62.3331 58.1665 61.9606 58.1665 61.4998V58.1665H56.5Z" fill="#3A98B2"/>
<path d="M50.6668 57.333H40.6668C40.2068 57.333 39.8335 57.7055 39.8335 58.1663V68.1663C39.8335 68.6271 40.2068 68.9996 40.6668 68.9996H50.6668C51.1276 68.9996 51.5001 68.6271 51.5001 68.1663V58.1663C51.5001 57.7055 51.1276 57.333 50.6668 57.333ZM49.8334 67.333H41.5001V58.9997H49.8334V67.333Z" fill="#3A98B2"/>
<path d="M46.5 58.1665V60.6665H44.8333V58.1665H43.1666V61.4998C43.1666 61.9606 43.5399 62.3331 43.9999 62.3331H47.3332C47.794 62.3331 48.1665 61.9606 48.1665 61.4998V58.1665H46.5Z" fill="#3A98B2"/>
<path d="M60.6668 47.333H50.6668C50.2059 47.333 49.8335 47.7055 49.8335 48.1663V58.1663C49.8335 58.6271 50.2059 58.9996 50.6668 58.9996H60.6668C61.1276 58.9996 61.5001 58.6271 61.5001 58.1663V48.1663C61.5001 47.7055 61.1276 47.333 60.6668 47.333ZM59.8334 57.333H51.5001V48.9997H59.8334V57.333Z" fill="#3A98B2"/>
<path d="M56.5 48.1665V50.6665H54.8333V48.1665H53.1666V51.4998C53.1666 51.9606 53.539 52.3331 53.9999 52.3331H57.3332C57.794 52.3331 58.1665 51.9606 58.1665 51.4998V48.1665H56.5Z" fill="#3A98B2"/>
<path d="M64.0001 43.9998H24.0001V45.6665H64.0001V43.9998Z" fill="#3A98B2"/>
<path d="M64.0001 40.6665H24.0001V42.3332H64.0001V40.6665Z" fill="#3A98B2"/>
<path d="M48.1667 30.6663H39.8334C39.3734 30.6663 39.0001 31.0396 39.0001 31.4996V34.8329C39.0001 35.2928 39.3734 35.6662 39.8334 35.6662H48.1667C48.6275 35.6662 49 35.2928 49 34.8329V31.4996C49 31.0396 48.6275 30.6663 48.1667 30.6663ZM47.3333 33.9997H40.6666V32.333H47.3333V33.9997Z" fill="#3A98B2"/>
</g>
<circle opacity="0.3" cx="44" cy="44" r="44" fill="#ABD2D9"/>
<defs>
<clipPath id="clip0_1_914">
<rect width="50" height="50" fill="white" transform="translate(19 19)"/>
</clipPath>
</defs>
</svg>
