<svg width="88" height="88" viewBox="0 0 88 88" fill="none" xmlns="http://www.w3.org/2000/svg">
<g clip-path="url(#clip0_1_782)">
<path d="M51.0312 40.0938C50.5992 40.0938 50.25 40.443 50.25 40.875V54.1562C50.25 54.5883 50.5992 54.9375 51.0312 54.9375C51.4633 54.9375 51.8125 54.5883 51.8125 54.1562V40.875C51.8125 40.443 51.4633 40.0938 51.0312 40.0938Z" fill="#3A98B2"/>
<path d="M68.2189 59.625H65.8915C65.4595 59.625 65.1103 59.9742 65.1103 60.4062C65.1103 60.8383 65.4595 61.1875 65.8915 61.1875H68.2189C68.6509 61.1875 69.0001 60.8383 69.0001 60.4062C69.0001 59.9742 68.6509 59.625 68.2189 59.625Z" fill="#3A98B2"/>
<path d="M68.2188 59.625C67.7867 59.625 67.4375 59.9742 67.4375 60.4062V63.5312C67.4375 63.9633 67.7867 64.3125 68.2188 64.3125C68.6508 64.3125 69 63.9633 69 63.5312V60.4062C69 59.9742 68.6508 59.625 68.2188 59.625Z" fill="#3A98B2"/>
<path d="M26.8125 62.75C26.8117 62.75 26.8109 62.75 26.8102 62.75L21.3414 62.7664C20.9094 62.768 20.5609 63.118 20.5625 63.55C20.5641 63.9812 20.9133 64.3289 21.3438 64.3289C21.3445 64.3289 21.3453 64.3289 21.3461 64.3289L26.8148 64.3125C27.2469 64.3109 27.5953 63.9609 27.5938 63.5289C27.5922 63.0977 27.243 62.75 26.8125 62.75Z" fill="#3A98B2"/>
<path d="M67.4375 55.7188H66.6562C66.2242 55.7188 65.875 56.068 65.875 56.5C65.875 56.932 66.2242 57.2812 66.6562 57.2812H67.4375C67.8695 57.2812 68.2188 56.932 68.2188 56.5C68.2188 56.068 67.8695 55.7188 67.4375 55.7188Z" fill="#3A98B2"/>
<path d="M67.4375 50.25C67.0055 50.25 66.6562 50.5992 66.6562 51.0312V60.4062C66.6562 60.8383 67.0055 61.1875 67.4375 61.1875C67.8695 61.1875 68.2188 60.8383 68.2188 60.4062V51.0312C68.2188 50.5992 67.8695 50.25 67.4375 50.25Z" fill="#3A98B2"/>
<path d="M62.75 40.0938H51.0312C50.5992 40.0938 50.25 40.443 50.25 40.875C50.25 41.307 50.5992 41.6562 51.0312 41.6562H62.75C63.182 41.6562 63.5312 41.307 63.5312 40.875C63.5312 40.443 63.182 40.0938 62.75 40.0938Z" fill="#3A98B2"/>
<path d="M68.1468 50.704L63.4593 40.5478C63.2788 40.1556 62.8155 39.9853 62.4225 40.1658C62.0304 40.3462 61.86 40.8111 62.0405 41.2025L66.728 51.3587C66.86 51.6447 67.1429 51.8126 67.4382 51.8126C67.5475 51.8126 67.6585 51.79 67.7647 51.7408C68.1569 51.5603 68.3272 51.0954 68.1468 50.704Z" fill="#3A98B2"/>
<path d="M21.3438 59.625C20.9117 59.625 20.5625 59.9742 20.5625 60.4062V63.5805C20.5625 64.0125 20.9117 64.3617 21.3438 64.3617C21.7758 64.3617 22.125 64.0117 22.125 63.5805V60.4062C22.125 59.9742 21.7758 59.625 21.3438 59.625Z" fill="#3A98B2"/>
<path d="M19.7812 49.4688C19.3492 49.4688 19 49.818 19 50.25V60.4062C19 60.8383 19.3492 61.1875 19.7812 61.1875C20.2133 61.1875 20.5625 60.8383 20.5625 60.4062V50.25C20.5625 49.818 20.2133 49.4688 19.7812 49.4688Z" fill="#3A98B2"/>
<path d="M51.0312 49.4688H19.7812C19.3492 49.4688 19 49.818 19 50.25C19 50.682 19.3492 51.0312 19.7812 51.0312H51.0312C51.4633 51.0312 51.8125 50.682 51.8125 50.25C51.8125 49.818 51.4633 49.4688 51.0312 49.4688Z" fill="#3A98B2"/>
<path d="M23.6875 59.625H19.7812C19.3492 59.625 19 59.9742 19 60.4062C19 60.8383 19.3492 61.1875 19.7812 61.1875H23.6875C24.1195 61.1875 24.4688 60.8383 24.4688 60.4062C24.4688 59.9742 24.1195 59.625 23.6875 59.625Z" fill="#3A98B2"/>
<path d="M31.5 58.0625C28.4852 58.0625 26.0312 60.5164 26.0312 63.5312C26.0312 66.5461 28.4852 69 31.5 69C34.5148 69 36.9688 66.5461 36.9688 63.5312C36.9688 60.5164 34.5148 58.0625 31.5 58.0625ZM31.5 67.4375C29.3461 67.4375 27.5938 65.6852 27.5938 63.5312C27.5938 61.3773 29.3461 59.625 31.5 59.625C33.6539 59.625 35.4062 61.3773 35.4062 63.5312C35.4062 65.6852 33.6539 67.4375 31.5 67.4375Z" fill="#3A98B2"/>
<path d="M31.5 61.1875C30.2078 61.1875 29.1562 62.2391 29.1562 63.5312C29.1562 64.8234 30.2078 65.875 31.5 65.875C32.7922 65.875 33.8438 64.8234 33.8438 63.5312C33.8438 62.2391 32.7922 61.1875 31.5 61.1875ZM31.5 64.3125C31.0688 64.3125 30.7188 63.9625 30.7188 63.5312C30.7188 63.1 31.0688 62.75 31.5 62.75C31.9313 62.75 32.2812 63.1 32.2812 63.5312C32.2812 63.9625 31.9313 64.3125 31.5 64.3125Z" fill="#3A98B2"/>
<path d="M57.2812 61.1875C55.9891 61.1875 54.9375 62.2391 54.9375 63.5312C54.9375 64.8234 55.9891 65.875 57.2812 65.875C58.5734 65.875 59.625 64.8234 59.625 63.5312C59.625 62.2391 58.5734 61.1875 57.2812 61.1875ZM57.2812 64.3125C56.85 64.3125 56.5 63.9625 56.5 63.5312C56.5 63.1 56.85 62.75 57.2812 62.75C57.7125 62.75 58.0625 63.1 58.0625 63.5312C58.0625 63.9625 57.7125 64.3125 57.2812 64.3125Z" fill="#3A98B2"/>
<path d="M57.2812 58.0625C54.2664 58.0625 51.8125 60.5164 51.8125 63.5312C51.8125 66.5461 54.2664 69 57.2812 69C60.2961 69 62.75 66.5461 62.75 63.5312C62.75 60.5164 60.2961 58.0625 57.2812 58.0625ZM57.2812 67.4375C55.1273 67.4375 53.375 65.6852 53.375 63.5312C53.375 61.3773 55.1273 59.625 57.2812 59.625C59.4352 59.625 61.1875 61.3773 61.1875 63.5312C61.1875 65.6852 59.4352 67.4375 57.2812 67.4375Z" fill="#3A98B2"/>
<path d="M52.6133 62.75H36.1875C35.7555 62.75 35.4062 63.0992 35.4062 63.5312C35.4062 63.9633 35.7555 64.3125 36.1875 64.3125H52.6133C53.0453 64.3125 53.3945 63.9633 53.3945 63.5312C53.3945 63.0992 53.0453 62.75 52.6133 62.75Z" fill="#3A98B2"/>
<path d="M68.2188 62.75H61.9688C61.5367 62.75 61.1875 63.0992 61.1875 63.5312C61.1875 63.9633 61.5367 64.3125 61.9688 64.3125H68.2188C68.6508 64.3125 69 63.9633 69 63.5312C69 63.0992 68.6508 62.75 68.2188 62.75Z" fill="#3A98B2"/>
<path d="M67.4375 50.25H58.0625C57.6305 50.25 57.2812 50.5992 57.2812 51.0312C57.2812 51.4633 57.6305 51.8125 58.0625 51.8125H67.4375C67.8695 51.8125 68.2188 51.4633 68.2188 51.0312C68.2188 50.5992 67.8695 50.25 67.4375 50.25Z" fill="#3A98B2"/>
<path d="M58.0625 50.25C56.7703 50.25 55.7188 49.1984 55.7188 47.9062C55.7188 47.4742 55.3695 47.125 54.9375 47.125C54.5055 47.125 54.1562 47.4742 54.1562 47.9062C54.1562 50.0602 55.9086 51.8125 58.0625 51.8125C58.4945 51.8125 58.8438 51.4633 58.8438 51.0312C58.8438 50.5992 58.4945 50.25 58.0625 50.25Z" fill="#3A98B2"/>
<path d="M54.9375 40.0938C54.5055 40.0938 54.1562 40.443 54.1562 40.875V47.9062C54.1562 48.3383 54.5055 48.6875 54.9375 48.6875C55.3695 48.6875 55.7188 48.3383 55.7188 47.9062V40.875C55.7188 40.443 55.3695 40.0938 54.9375 40.0938Z" fill="#3A98B2"/>
<path d="M53.375 30.7188C52.943 30.7188 52.5938 31.068 52.5938 31.5V34.625C52.5938 35.057 52.943 35.4062 53.375 35.4062C53.807 35.4062 54.1562 35.057 54.1562 34.625V31.5C54.1562 31.068 53.807 30.7188 53.375 30.7188Z" fill="#3A98B2"/>
<path d="M22.9062 32.1694C22.4742 32.1694 22.125 32.5187 22.125 32.9507V50.2499C22.125 50.6819 22.4742 51.0312 22.9062 51.0312C23.3383 51.0312 23.6875 50.6819 23.6875 50.2499V32.9507C23.6875 32.5187 23.3383 32.1694 22.9062 32.1694Z" fill="#3A98B2"/>
<path d="M51.0312 32.1694C50.5992 32.1694 50.25 32.5187 50.25 32.9507V50.2499C50.25 50.6819 50.5992 51.0312 51.0312 51.0312C51.4633 51.0312 51.8125 50.6819 51.8125 50.2499V32.9507C51.8125 32.5187 51.4633 32.1694 51.0312 32.1694Z" fill="#3A98B2"/>
<path d="M53.828 30.8641L37.4218 19.1453C37.1499 18.9516 36.7859 18.9516 36.514 19.1453L20.1077 30.8641C19.7569 31.1148 19.6749 31.6031 19.9265 31.9539C20.178 32.3047 20.6663 32.3867 21.0163 32.1352L36.9687 20.7414L52.921 32.1352C53.0585 32.2336 53.2171 32.2812 53.3741 32.2812C53.6187 32.2812 53.8577 32.1672 54.0093 31.9539C54.2608 31.6023 54.1788 31.1141 53.828 30.8641Z" fill="#3A98B2"/>
<path d="M53.828 33.9891L37.4218 22.2703C37.1499 22.0766 36.7859 22.0766 36.514 22.2703L20.1077 33.9891C19.7569 34.2398 19.6749 34.7281 19.9265 35.0789C20.178 35.4297 20.6663 35.5109 21.0163 35.2602L36.9687 23.8664L52.921 35.2602C53.0585 35.3586 53.2171 35.4062 53.3741 35.4062C53.6187 35.4062 53.8577 35.2922 54.0093 35.0789C54.2608 34.7273 54.1788 34.2391 53.828 33.9891Z" fill="#3A98B2"/>
<path d="M20.5625 30.7188C20.1305 30.7188 19.7812 31.068 19.7812 31.5V34.625C19.7812 35.057 20.1305 35.4062 20.5625 35.4062C20.9945 35.4062 21.3438 35.057 21.3438 34.625V31.5C21.3438 31.068 20.9945 30.7188 20.5625 30.7188Z" fill="#3A98B2"/>
<path d="M39.3125 40.0938C38.8805 40.0938 38.5312 40.443 38.5312 40.875V50.25C38.5312 50.682 38.8805 51.0312 39.3125 51.0312C39.7445 51.0312 40.0938 50.682 40.0938 50.25V40.875C40.0938 40.443 39.7445 40.0938 39.3125 40.0938Z" fill="#3A98B2"/>
<path d="M39.3125 40.0938H34.625C34.193 40.0938 33.8438 40.443 33.8438 40.875C33.8438 41.307 34.193 41.6562 34.625 41.6562H39.3125C39.7445 41.6562 40.0938 41.307 40.0938 40.875C40.0938 40.443 39.7445 40.0938 39.3125 40.0938Z" fill="#3A98B2"/>
<path d="M34.625 40.0938C34.193 40.0938 33.8438 40.443 33.8438 40.875V50.25C33.8438 50.682 34.193 51.0312 34.625 51.0312C35.057 51.0312 35.4062 50.682 35.4062 50.25V40.875C35.4062 40.443 35.057 40.0938 34.625 40.0938Z" fill="#3A98B2"/>
<path d="M31.5 36.1875H26.0312C25.5992 36.1875 25.25 36.5367 25.25 36.9688V42.4375C25.25 42.8695 25.5992 43.2188 26.0312 43.2188H31.5C31.932 43.2188 32.2812 42.8695 32.2812 42.4375V36.9688C32.2812 36.5367 31.932 36.1875 31.5 36.1875ZM30.7188 41.6562H26.8125V37.75H30.7188V41.6562Z" fill="#3A98B2"/>
<path d="M47.9062 36.1875H42.4375C42.0055 36.1875 41.6562 36.5367 41.6562 36.9688V42.4375C41.6562 42.8695 42.0055 43.2188 42.4375 43.2188H47.9062C48.3383 43.2188 48.6875 42.8695 48.6875 42.4375V36.9688C48.6875 36.5367 48.3383 36.1875 47.9062 36.1875ZM47.125 41.6562H43.2188V37.75H47.125V41.6562Z" fill="#3A98B2"/>
<path d="M36.9688 29.1562C35.2453 29.1562 33.8438 30.5578 33.8438 32.2812C33.8438 34.0047 35.2453 35.4062 36.9688 35.4062C38.6922 35.4062 40.0938 34.0047 40.0938 32.2812C40.0938 30.5578 38.6922 29.1562 36.9688 29.1562ZM36.9688 33.8438C36.107 33.8438 35.4062 33.143 35.4062 32.2812C35.4062 31.4195 36.107 30.7188 36.9688 30.7188C37.8305 30.7188 38.5312 31.4195 38.5312 32.2812C38.5312 33.143 37.8305 33.8438 36.9688 33.8438Z" fill="#3A98B2"/>
</g>
<circle opacity="0.3" cx="44" cy="44" r="44" fill="#ABD2D9"/>
<defs>
<clipPath id="clip0_1_782">
<rect width="50" height="50" fill="white" transform="translate(19 19)"/>
</clipPath>
</defs>
</svg>
