<svg width="88" height="88" viewBox="0 0 88 88" fill="none" xmlns="http://www.w3.org/2000/svg">
<circle opacity="0.3" cx="44" cy="44" r="44" fill="#ABD2D9"/>
<path d="M53.738 37.677C52.0411 37.677 50.6667 39.0525 50.6667 40.7483C50.6667 42.4447 52.0412 43.8196 53.738 43.8196C55.4344 43.8196 56.8093 42.4447 56.8093 40.7483C56.8093 39.0524 55.4344 37.677 53.738 37.677ZM53.738 42.2841C52.8914 42.2841 52.2023 41.595 52.2023 40.7484C52.2023 39.9017 52.8914 39.2127 53.738 39.2127C54.5846 39.2127 55.2736 39.9017 55.2736 40.7484C55.2736 41.595 54.5846 42.2841 53.738 42.2841Z" fill="#3A98B2"/>
<path d="M32.3662 29.9988C30.9518 29.9988 29.8072 31.1438 29.8072 32.5578C29.8072 33.9717 30.9519 35.1178 32.3662 35.1178C33.7806 35.1178 34.9262 33.9716 34.9262 32.5578C34.9262 31.1439 33.7806 29.9988 32.3662 29.9988ZM32.3662 33.5821C31.8017 33.5821 31.3429 33.123 31.3429 32.5579C31.3429 31.9932 31.8017 31.5346 32.3662 31.5346C32.9313 31.5346 33.3905 31.9932 33.3905 32.5579C33.3905 33.123 32.9313 33.5821 32.3662 33.5821Z" fill="#3A98B2"/>
<path d="M62.9636 29.2688L52.7019 28.1698C52.1419 28.1099 51.4043 28.0798 50.6662 28.0798C49.928 28.0798 49.1904 28.1099 48.6304 28.1698L38.3686 29.2688C38.1864 29.2882 37.9816 29.3036 37.7676 29.3169C36.5718 27.5689 34.5402 26.4155 32.2378 26.4155C30.3064 26.4155 28.5701 27.232 27.3534 28.525L24.0359 28.1697C23.9626 28.1616 23.891 28.1579 23.8198 28.1579C22.8011 28.158 22 28.9463 22 29.9993V57.1293C22 58.2555 22.9158 59.2751 24.0358 59.3954L34.2976 60.4945C34.8576 60.5544 35.5952 60.5845 36.3333 60.5845C37.0715 60.5845 37.8091 60.5544 38.3691 60.4945L48.6309 59.3954C49.1909 59.3355 49.9285 59.3053 50.6667 59.3053C51.4048 59.3053 52.1424 59.3355 52.7024 59.3954L62.9642 60.4945C63.0375 60.5021 63.1091 60.5057 63.1803 60.5057C64.199 60.5057 65 59.718 65 58.6645V31.5344C64.9993 30.4082 64.0837 29.3891 62.9636 29.2688ZM35.5659 59.0355C35.1492 59.0227 34.7643 59.0001 34.4617 58.9675L24.2006 57.8673C23.8592 57.8309 23.5367 57.4721 23.5367 57.1286V29.9987C23.5367 29.8047 23.6401 29.6932 23.8209 29.6932L23.8736 29.6962L26.3276 29.9593C25.8551 30.8547 25.5844 31.8672 25.5844 32.9426C25.5844 36.1352 30.1862 41.2975 31.1091 42.2999L32.2388 43.5285L33.3684 42.3005C33.7201 41.9191 34.6052 40.9322 35.5659 39.6832V59.0355ZM32.2387 41.2602C32.2387 41.2602 27.1198 35.698 27.1198 32.9425C27.1198 30.1845 29.4126 27.9512 32.2387 27.9512C35.0653 27.9512 37.3575 30.1846 37.3575 32.9425C37.3575 35.698 32.2387 41.2602 32.2387 41.2602ZM49.8987 57.7811C49.3664 57.7956 48.8719 57.8238 48.4675 57.8673L38.2053 58.9664C37.9033 58.9986 37.5178 59.0211 37.1017 59.0344V37.4993C38.0962 35.933 38.8933 34.2683 38.8933 32.9425C38.8933 32.19 38.7561 31.4703 38.5165 30.7972C38.5216 30.7966 38.5273 30.7962 38.5329 30.7956L48.7951 29.6965C49.0971 29.6643 49.4821 29.6423 49.8987 29.6285V34.6215C47.607 35.9518 46.0595 38.4269 46.0595 41.2611C46.0595 43.5656 48.0748 46.7838 49.8987 49.2255V57.7811ZM47.5953 41.2607C47.5953 37.8669 50.3451 35.118 53.738 35.118C57.1303 35.118 59.8807 37.8668 59.8807 41.2607C59.8807 44.6519 53.738 51.4979 53.738 51.4979C53.738 51.4979 47.5953 44.6519 47.5953 41.2607ZM63.4638 58.6643H63.4638C63.4638 58.8583 63.3604 58.9698 63.1796 58.9698L63.1269 58.9668L52.8657 57.8677C52.4608 57.8242 51.9663 57.7955 51.4339 57.7807V51.1738C51.9499 51.7962 52.3676 52.2703 52.5949 52.5237L53.738 53.7972L54.8806 52.5237C55.9725 51.3074 61.4164 45.0482 61.4164 41.2607C61.4164 37.0269 57.972 33.5825 53.7381 33.5825C52.936 33.5825 52.1625 33.7074 51.4347 33.9367V29.6282C51.8514 29.6415 52.2363 29.664 52.5388 29.6962L62.8 30.7953C63.1414 30.8322 63.4639 31.1915 63.4639 31.5344V58.6643H63.4638Z" fill="#3A98B2"/>
</svg>
