<svg width="88" height="88" viewBox="0 0 88 88" fill="none" xmlns="http://www.w3.org/2000/svg">
<circle opacity="0.3" cx="44" cy="44" r="44" fill="#ABD2D9"/>
<path d="M54.7164 48.9061L48.0992 45.4727L59.789 36.2439L66.4623 39.2798L54.7164 48.9061ZM59.2226 54.0241L47.6592 65.2421V46.4001L54.554 49.9772C54.7271 50.0674 54.9338 50.0449 55.0856 49.9199L59.2226 46.5298V54.0241ZM28.3736 46.0149L39.4551 52.1327C39.5285 52.174 39.6088 52.1938 39.689 52.1938C39.7985 52.1938 39.9079 52.1562 39.9974 52.0829L46.6631 46.6294V65.4827L28.3736 55.8329V46.0149ZM27.9516 36.5427L46.2265 45.67L39.636 51.0625L21.6053 41.1073L27.9516 36.5427ZM21.6029 32.2975L33.766 24.1595L39.7418 27.0122L27.8618 35.3541L21.6029 32.2975ZM40.2551 41.5414L28.9028 35.8708L40.2551 27.9001V41.5414ZM47.1023 44.9606L41.2512 42.0385V27.7207L58.7485 35.7666L47.1023 44.9606ZM46.4369 23.266L64.6939 31.2235L59.6586 35.0543L41.7437 26.8168L46.4369 23.266ZM67.916 39.0862C67.8937 38.9067 67.7818 38.7517 67.6218 38.6793L60.712 35.5354L65.9925 31.5176C66.1369 31.4077 66.2133 31.2254 66.1923 31.0403C66.1714 30.8552 66.0561 30.6964 65.8908 30.625L46.5639 22.2004C46.4029 22.13 46.2185 22.1525 46.0775 22.2587L40.6959 26.33L33.9338 23.1016C33.7797 23.0283 33.5992 23.0414 33.4558 23.1372L20.3081 31.9339C20.1559 32.0354 20.0694 32.2148 20.081 32.4027C20.0932 32.5897 20.2021 32.756 20.366 32.8359L26.9126 36.0325L20.3666 40.7409C20.2236 40.8433 20.1428 41.0152 20.153 41.1956C20.1633 41.3751 20.263 41.5367 20.4162 41.6213L27.3776 45.4652V56.1495C27.3776 56.344 27.4826 56.5226 27.6499 56.6109L47.0074 66.8235C47.079 66.8611 47.1563 66.8799 47.2332 66.8799C47.3567 66.8799 47.4788 66.832 47.5731 66.7408L60.0607 54.6264C60.1614 54.5287 60.2187 54.3915 60.2187 54.2487V45.7133L67.7308 39.5579C67.8679 39.4451 67.9379 39.2666 67.916 39.0862Z" fill="#3A98B2"/>
</svg>
