<svg width="88" height="88" viewBox="0 0 88 88" fill="none" xmlns="http://www.w3.org/2000/svg">
<circle opacity="0.3" cx="44" cy="44" r="44" fill="#ABD2D9"/>
<path d="M67.0813 49.6134C67.0813 51.388 65.6491 52.8318 63.8895 52.8318H28.4804C28.4797 52.8318 28.4791 52.8318 28.4784 52.8318H24.1105C22.3508 52.8318 20.9187 51.388 20.9187 49.6134V37.3206C20.9187 36.7511 21.3782 36.2872 21.9437 36.2872H24.068C24.7198 36.2872 25.0931 36.9002 25.0931 37.9696V43.4519V47.1182C25.0931 47.5834 26.0339 48.2699 26.8792 48.2699H61.1207C61.9661 48.2699 62.9069 47.5834 62.9069 47.1182V43.4519V37.9696C62.9069 36.9002 63.2802 36.2872 63.9319 36.2872H66.0562C66.6218 36.2872 67.0813 36.7511 67.0813 37.3206V49.6134ZM63.625 57.4224C63.4672 57.6082 63.2384 57.7145 62.9739 57.7145C62.6755 57.7145 62.3997 57.5514 62.2538 57.2894L60.2422 53.6773H63.3312L63.8126 56.7513C63.8504 56.992 63.7821 57.2373 63.625 57.4224ZM25.7461 57.2894C25.6003 57.5514 25.3245 57.7145 25.0036 57.7145C24.7616 57.7145 24.5328 57.6082 24.375 57.4224C24.2179 57.2373 24.1496 56.992 24.1874 56.7513L24.6687 53.6773H27.7577L25.7461 57.2894ZM25.9318 33.3549C25.9318 32.236 26.8355 31.3249 27.9454 31.3249H35.405C36.5149 31.3249 37.4179 32.236 37.4179 33.3549V43.0295H25.9318V37.9696V33.3549ZM40.2702 31.3249H47.7298C48.8397 31.3249 49.7427 32.236 49.7427 33.3549V43.0295H38.2573V33.3549C38.2573 32.236 39.1603 31.3249 40.2702 31.3249ZM52.595 31.3249H60.0546C61.1645 31.3249 62.0682 32.236 62.0682 33.3549V37.9696V43.0295H50.5821V33.3549C50.5821 32.236 51.4851 31.3249 52.595 31.3249ZM25.9318 43.875H62.0682V46.9972C61.9343 47.1356 61.5524 47.4243 61.1207 47.4243H26.8792C26.4476 47.4243 26.0657 47.1356 25.9318 46.9972V43.875ZM66.0562 35.4417H63.9319C63.5792 35.4417 63.2172 35.5439 62.9069 35.7799V33.3549C62.9069 31.7694 61.6273 30.4801 60.0546 30.4801H52.595C51.5673 30.4801 50.6643 31.0308 50.1624 31.8557C49.6605 31.0308 48.7575 30.4801 47.7298 30.4801H40.2702C39.2425 30.4801 38.3395 31.0308 37.8376 31.8557C37.3357 31.0308 36.4326 30.4801 35.405 30.4801H27.9454C26.3727 30.4801 25.0931 31.7694 25.0931 33.3549V35.7799C24.7828 35.5439 24.4208 35.4417 24.068 35.4417H21.9437C20.9161 35.4417 20.08 36.2845 20.08 37.3206V49.6134C20.08 51.7563 21.7336 53.5155 23.8214 53.6653L23.3586 56.6197C23.2824 57.1049 23.4209 57.5982 23.7379 57.9719C24.0548 58.3455 24.5156 58.5601 25.0261 58.5601C25.6275 58.5601 26.1837 58.2319 26.4774 57.7032L28.7198 53.6773H59.2802L61.5225 57.7032C61.8162 58.2319 62.3725 58.5601 62.9964 58.5601C63.4844 58.5601 63.9452 58.3455 64.2621 57.9719C64.579 57.5982 64.7176 57.1049 64.6414 56.6197L64.1786 53.6653C66.2664 53.5155 67.92 51.7563 67.92 49.6134V37.3206C67.92 36.2845 67.0839 35.4417 66.0562 35.4417Z" fill="#3A98B2"/>
</svg>
